
              <svg id="sw-js-blob-svg" viewBox="0 0 100 100" xmlns="http://www.w3.org/2000/svg" version="1.1">
                    <defs> 
                        <linearGradient id="sw-gradient" x1="0" x2="1" y1="1" y2="0">
                            <stop id="stop1" stop-color="rgba(248, 117, 55, 1)" offset="0%"></stop>
                            <stop id="stop2" stop-color="rgba(251, 168, 31, 1)" offset="100%"></stop>
                        </linearGradient>
                    </defs>
                <path fill="url(#sw-gradient)" d="M23,-32.4C29.8,-26.8,35.2,-20,37.6,-12.3C39.9,-4.6,39.2,4,35.7,10.6C32.2,17.3,25.9,22.1,19.4,27.8C13,33.4,6.5,40,-1.6,42.2C-9.6,44.3,-19.3,42.1,-25.5,36.3C-31.8,30.6,-34.6,21.4,-35.2,13C-35.7,4.6,-34.1,-3,-32.3,-11.1C-30.5,-19.3,-28.7,-28.1,-23.3,-34.2C-17.9,-40.3,-8.9,-43.8,-0.4,-43.2C8.1,-42.6,16.2,-38.1,23,-32.4Z" width="100%" height="100%" transform="translate(50 50)" stroke-width="0" style="transition: 0.3s;"></path>
              </svg>