
<svg version="1.1" id="Layer_1" xmlns="http://www.w3.org/2000/svg" xmlns:xlink="http://www.w3.org/1999/xlink" x="0px" y="0px"
	 viewBox="0 0 612 792" style="enable-background:new 0 0 612 792;" xml:space="preserve">
<style type="text/css">
	.st0{fill:#FCA647;}
	.st1{fill:#FE2423;}
	.st2{fill:#FE2725;}
	.st3{fill:#FE3127;}
	.st4{fill:#FE3028;}
	.st5{fill:#FE3128;}
	.st6{fill:#FE2E26;}
</style>
<g>
	<path class="st0" d="M544.13,515.94c20.56,3.85,39.99,7.53,57.09-8.22c7.49,48.78,10.53,100.27-24.6,139.15
		c-17.89,28.91-46.03,46.99-74.56,64.3c-29.65,19.79-65.03,24.64-99.41,30.61c44.79-13.9,89.42-31.85,117.68-71.57
		c16.13-22.81,37.2-57.76,19.64-84.57c-2.29-1.41-8.52,1.09-11.5,3.62c-24.83,21.01-54.39,27.71-85.7,28.11
		c-114.66-5.09-106.08-131.18-70.37-209.36c8.75-32.36-76.56,31.46-80.47,41.88c-56.41,61.75-18.5,109.02-35.64,174.18
		c-22.77,51.43-82.4,49.73-123.97,27.33c-12.55-3.11-44.91-33.24-53.32-25.44c-33.75-56.71-37.93-114.7-35.28-179.29
		c-9.55,21.36-10.26,45.33-5.87,68.59c-4.77,5.95-16.97,43.4-23.89,24.1c-7.97-28.7,1.77-58.56,8.41-86.52
		c7.32-21.83,27.75-65.27,49.47-73.28c-2.73-9.78,8.18-10.32,12.41-15.79c13.79-14.8,33.77-22.92,50.53-33.98
		c0.4,0.61,0.78,1.22,1.18,1.83c-12.45,50.36-17.66,110.68,9.95,156.79c1.64,38.92,24.01,81.01,45.52,93.38
		c-23.63-27.82-31.08-61.56-45.46-93.44c1.85-69.32,54.77-115.79,91.8-168.61c16.63-27.94,9.1-61.17,7.76-91.8
		C226.97,119.64,263.03,84.38,360.38,46.24c-48.91,49.62-78.51,123.89-56.48,192.83c-0.82-30.93-2.9-94.07,12.47-111.82
		c-11.29,42.28,3.57,90.96,39.53,117.01c38.27,21.03,45.8,66.23,43.63,106.48c1.26-0.02,2.52-0.04,3.81-0.08
		c0.25-23.04,0.8-46.03-3.01-68.82c3.01-25.65-2.59-50.27-19.39-70.5c39.26,31.16,80.68,68.4,91.36,119.55
		c6.08,24.89-5.53,50.88-8.28,75.55c-30.68,7.93-51.89,21.17-52.38,32.49c18-12.64,37.49-22.69,58.07-30.55
		c11.44-1.56,19.26-9.69,27.59-16.23c28.05-22.48,34.84-63.56,13.39-93.23c36.29,4.82,66.44,41.48,63.27,78.62
		c-1.96,14.47-7.51,29.73-12.13,43.69c-11.33,27.46-39.32,50.9-31.12,83.16c-20.88-16.8-17.58-47.88-12.09-71.95
		c-24.52,29.31-9.57,75.97,27.21,86.59C545.29,517.98,544.7,516.95,544.13,515.94z"/>
	<path class="st1" d="M79.01,625.97c7.88-7.91,41.36,22.54,53.32,25.44c41.55,22.41,101.18,24.12,123.95-27.33
		c17.09-64.97-20.71-112.66,35.64-174.18c4.31-10.93,89.13-73.99,80.47-41.88c-35.72,78.26-44.26,204.25,70.37,209.36
		c73.07,3.72,96.97-55.95,102.92-19.97c3.57,54.12-40.87,98.44-84.82,122.5c-39.66,20.63-84.42,26.28-128.41,30.76
		c-2.12,0.25-4.5-1.47-6.77-2.27c2.52-9.99,12.32-13.5,19.2-19.93c34.25-39.21-20.86-69.34-52.19-43.9
		c-3.53,3.51-2.21,14.32,2.38,19.34c7.4,8.12,6.85,12.22-3.72,14.02c-21.47,3.66-43.12,7.34-64.82,8.24
		C161.39,732.07,105.42,681.42,79.01,625.97z"/>
	<path class="st2" d="M380.97,211.34c16.78,20.25,22.39,44.85,19.39,70.5c3.81,22.79,3.26,45.77,3.01,68.82
		c-1.26,0.02-2.52,0.04-3.81,0.08c2.17-40.22-5.38-85.43-43.63-106.46c-35.98-26.05-50.82-74.73-39.53-117.01
		c-15.39,17.89-13.27,80.76-12.47,111.82C282.27,172.9,312.25,77,372.13,41.32c0.65,0.61,1.32,1.22,1.98,1.85
		c-15.14,29.16-35.56,55.61-38.12,89.8C331.64,166.49,362.13,187.91,380.97,211.34z"/>
	<path class="st3" d="M544.13,515.94c0.59,1.03,1.18,2.04,1.75,3.07c-36.77-10.62-51.75-57.28-27.21-86.59
		c-5.51,24.05-8.81,55.17,12.09,71.95C535.21,508.23,539.67,512.07,544.13,515.94z"/>
	<path class="st4" d="M37.86,515.27c-4.42-23.23-3.68-47.22,5.87-68.59c0,25.76,0,51.32,0,76.87
		C41.77,520.8,39.82,518.02,37.86,515.27z"/>
	<path class="st5" d="M469.74,408.37c-20.58,7.86-40.08,17.94-58.07,30.55c0.48-11.31,21.7-24.56,52.38-32.49
		C465.93,407.07,467.85,407.72,469.74,408.37z"/>
	<path class="st6" d="M145.98,488.38c14.38,31.9,21.8,65.62,45.46,93.44C169.99,569.47,147.39,527.23,145.98,488.38z"/>
</g>
</svg>
